<?xml version="1.0" encoding="UTF-8"?>
<!DOCTYPE svg PUBLIC "-//W3C//DTD SVG 1.1//EN" "http://www.w3.org/Graphics/SVG/1.1/DTD/svg11.dtd">
<svg xmlns="http://www.w3.org/2000/svg" version="1.1" width="225px" height="225px" style="shape-rendering:geometricPrecision; text-rendering:geometricPrecision; image-rendering:optimizeQuality; fill-rule:evenodd; clip-rule:evenodd" xmlns:xlink="http://www.w3.org/1999/xlink">
<g><path style="opacity:1" fill="#fefefe" d="M -0.5,-0.5 C 74.5,-0.5 149.5,-0.5 224.5,-0.5C 224.5,74.5 224.5,149.5 224.5,224.5C 149.5,224.5 74.5,224.5 -0.5,224.5C -0.5,149.5 -0.5,74.5 -0.5,-0.5 Z"/></g>
<g><path style="opacity:1" fill="#dd0230" d="M 110.5,27.5 C 111.49,33.6446 111.823,39.9779 111.5,46.5C 94.5,85.1667 77.5,123.833 60.5,162.5C 59.9569,162.56 59.6236,162.893 59.5,163.5C 66.3222,164.818 72.9888,164.818 79.5,163.5C 82.8256,155.195 86.1589,146.862 89.5,138.5C 96.8032,137.503 104.137,137.169 111.5,137.5C 111.5,160.167 111.5,182.833 111.5,205.5C 88.2207,192.858 64.8874,180.191 41.5,167.5C 36.7163,130.284 32.7163,93.1177 29.5,56C 56.4103,46.1969 83.4103,36.6969 110.5,27.5 Z"/></g>
<g><path style="opacity:1" fill="#c3022e" d="M 110.5,27.5 C 111.251,26.4265 112.251,26.2599 113.5,27C 140.392,36.9453 167.392,46.6119 194.5,56C 191.284,93.1188 187.284,130.285 182.5,167.5C 159.08,180.627 135.58,193.627 112,206.5C 111.601,206.272 111.435,205.938 111.5,205.5C 111.5,182.833 111.5,160.167 111.5,137.5C 119.167,137.5 126.833,137.5 134.5,137.5C 137.635,146.238 140.968,154.905 144.5,163.5C 151.011,164.818 157.678,164.818 164.5,163.5C 164.376,162.893 164.043,162.56 163.5,162.5C 146.677,123.528 129.344,84.8615 111.5,46.5C 111.823,39.9779 111.49,33.6446 110.5,27.5 Z"/></g>
<g><path style="opacity:1" fill="#fefcfc" d="M 111.5,46.5 C 129.344,84.8615 146.677,123.528 163.5,162.5C 157.355,163.49 151.022,163.823 144.5,163.5C 140.968,154.905 137.635,146.238 134.5,137.5C 126.833,137.5 119.167,137.5 111.5,137.5C 104.137,137.169 96.8032,137.503 89.5,138.5C 86.1589,146.862 82.8256,155.195 79.5,163.5C 72.9779,163.823 66.6446,163.49 60.5,162.5C 77.5,123.833 94.5,85.1667 111.5,46.5 Z"/></g>
<g><path style="opacity:1" fill="#dc062f" d="M 113.5,89.5 C 112.883,89.3893 112.383,89.056 112,88.5C 111.5,99.1615 111.333,109.828 111.5,120.5C 106.833,120.5 102.167,120.5 97.5,120.5C 102.034,108.736 106.868,97.0693 112,85.5C 112.791,86.745 113.291,88.0783 113.5,89.5 Z"/></g>
<g><path style="opacity:1" fill="#c60d31" d="M 113.5,89.5 C 117.988,99.9842 122.654,110.484 127.5,121C 116.754,121.821 106.754,121.654 97.5,120.5C 102.167,120.5 106.833,120.5 111.5,120.5C 111.333,109.828 111.5,99.1615 112,88.5C 112.383,89.056 112.883,89.3893 113.5,89.5 Z"/></g>
<g><path style="opacity:1" fill="#e87a87" d="M 60.5,162.5 C 66.6446,163.49 72.9779,163.823 79.5,163.5C 72.9888,164.818 66.3222,164.818 59.5,163.5C 59.6236,162.893 59.9569,162.56 60.5,162.5 Z"/></g>
<g><path style="opacity:1" fill="#d67884" d="M 163.5,162.5 C 164.043,162.56 164.376,162.893 164.5,163.5C 157.678,164.818 151.011,164.818 144.5,163.5C 151.022,163.823 157.355,163.49 163.5,162.5 Z"/></g>
</svg>
